<svg width="20" height="20" viewBox="0 0 20 20" xmlns="http://www.w3.org/2000/svg"><title>menu</title><g fill="none" class="nc-icon-wrapper"><path fill-rule="evenodd" clip-rule="evenodd" d="M3 5a1 1 0 0 1 1-1h12a1 1 0 1 1 0 2H4a1 1 0 0 1-1-1z" fill="#4A5568"/><path fill-rule="evenodd" clip-rule="evenodd" d="M3 10a1 1 0 0 1 1-1h12a1 1 0 1 1 0 2H4a1 1 0 0 1-1-1z" fill="#4A5568"/><path fill-rule="evenodd" clip-rule="evenodd" d="M3 15a1 1 0 0 1 1-1h12a1 1 0 1 1 0 2H4a1 1 0 0 1-1-1z" fill="#4A5568"/></g></svg>