<svg width="20" height="20" viewBox="0 0 20 20" xmlns="http://www.w3.org/2000/svg"><title>sort descending</title><g fill="none" class="nc-icon-wrapper"><path d="M3 3a1 1 0 0 0 0 2h11a1 1 0 1 0 0-2H3z" fill="#4A5568"/><path d="M3 7a1 1 0 0 0 0 2h7a1 1 0 1 0 0-2H3z" fill="#4A5568"/><path d="M3 11a1 1 0 1 0 0 2h4a1 1 0 1 0 0-2H3z" fill="#4A5568"/><path d="M15 8a1 1 0 1 0-2 0v5.586l-1.293-1.293a1 1 0 0 0-1.414 1.414l3 3a1 1 0 0 0 1.414 0l3-3a1 1 0 0 0-1.414-1.414L15 13.586V8z" fill="#4A5568"/></g></svg>